<svg xmlns="http://www.w3.org/2000/svg" viewBox="0 0 43.44 43.44"><defs><style>.cls-1{fill:none;stroke:#fff;stroke-miterlimit:10;stroke-width:5px;}.cls-2{fill:#fff;}</style></defs><title>Asset 7</title><g id="Layer_2" data-name="Layer 2"><g id="Layer_1-2" data-name="Layer 1"><line class="cls-1" x1="1.77" y1="1.77" x2="41.67" y2="41.67"/><polygon class="cls-2" points="20.28 11.6 20.28 3.82 16.2 7.52 20.28 11.6"/><polygon class="cls-2" points="12.49 10.88 8.43 14.57 0.81 14.57 0.81 27.8 8.43 27.8 20.28 38.55 20.28 18.67 12.49 10.88"/><path class="cls-2" d="M31,22.32a9.6,9.6,0,0,0,.07-1.13c0-4.29-2.82-7.77-6.29-7.77V16.1Z"/><path class="cls-2" d="M32.2,30.59l-.22.3a10.68,10.68,0,0,1-3.32,2.78,8.3,8.3,0,0,1-3.87,1v5A13.31,13.31,0,0,0,31,38.1a15.64,15.64,0,0,0,4.79-3.95Z"/><path class="cls-2" d="M33.3,13.47a16.12,16.12,0,0,1,1.9,7.72,16.7,16.7,0,0,1-.67,4.67l3.9,3.9a21.38,21.38,0,0,0,1.76-8.57A20.44,20.44,0,0,0,35.86,8.33,15.66,15.66,0,0,0,31,4.27a13.31,13.31,0,0,0-6.19-1.54v5a8.3,8.3,0,0,1,3.87,1A11.53,11.53,0,0,1,33.3,13.47Z"/></g></g></svg>