<svg xmlns="http://www.w3.org/2000/svg" viewBox="0 0 39.39 36.9"><defs><style>.cls-1{fill:#fff;}</style></defs><title>Asset 5</title><g id="Layer_2" data-name="Layer 2"><g id="Layer_1-2" data-name="Layer 1"><path class="cls-1" d="M24,10.68c3.47,0,6.29,3.48,6.29,7.77S27.45,26.22,24,26.22"/><path class="cls-1" d="M24,5a8.3,8.3,0,0,1,3.87,1,11.53,11.53,0,0,1,4.65,4.76,16.12,16.12,0,0,1,1.9,7.72,15.47,15.47,0,0,1-3.23,9.71,10.68,10.68,0,0,1-3.32,2.78,8.3,8.3,0,0,1-3.87,1v5a13.31,13.31,0,0,0,6.19-1.54,16.5,16.5,0,0,0,6.72-6.79,21.1,21.1,0,0,0,2.51-10.12A20.44,20.44,0,0,0,35,5.6a15.66,15.66,0,0,0-4.89-4.06A13.31,13.31,0,0,0,24,0V5Z"/><polygon class="cls-1" points="7.61 11.84 0 11.84 0 25.06 7.61 25.06 19.47 35.82 19.47 1.08 7.61 11.84"/></g></g></svg>