<?xml version="1.0" encoding="UTF-8"?>
<svg width="21px" height="19px" viewBox="0 0 21 19" version="1.1" xmlns="http://www.w3.org/2000/svg" xmlns:xlink="http://www.w3.org/1999/xlink">
    <!-- Generator: Sketch 41.2 (35397) - http://www.bohemiancoding.com/sketch -->
    <title>Combined Shape Copy 5</title>
    <desc>Created with Sketch.</desc>
    <defs></defs>
    <g id="Annual-Meeting" stroke="none" stroke-width="1" fill="none" fill-rule="evenodd">
        <g id="AnnualMeeting_1440" transform="translate(-234.000000, -3535.000000)" fill="#FFFFFF">
            <g id="Item2" transform="translate(189.000000, 3478.000000)">
                <g id="Group-26-Copy" transform="translate(31.000000, 43.000000)">
                    <path d="M35.02618,22.4895738 C35.02618,21.6598033 34.3351486,20.9882623 33.4843625,20.9882623 L26.6780742,20.9882623 L26.6780742,15.5013115 C26.6780742,14.6727869 25.9895196,14 25.1387335,14 C24.2867091,14 23.596916,14.6727869 23.596916,15.5013115 L23.596916,15.8651148 C23.596916,17.7140328 22.9430368,20.7303607 21.4284643,21.6548197 L21.4284643,21.6560656 C20.8204062,22.0485246 20.4191621,22.7200656 20.4191621,23.4838033 L20.4191621,30.8931803 C20.4191621,31.0414426 20.4352614,31.1847213 20.4649832,31.3242623 C20.6519827,32.201377 21.3999809,32.8779016 22.3263098,32.9838033 C22.4105215,32.9937705 30.3400456,33 30.3400456,33 C31.1908316,33 31.8806247,32.328459 31.8806247,31.4986885 C31.8806247,30.668918 31.1908316,29.998623 30.3400456,29.998623 L31.3877384,29.998623 C32.2385245,29.998623 32.9295559,29.3258361 32.9295559,28.4960656 C32.9295559,27.6662951 32.2385245,26.9947541 31.3877384,26.9947541 L32.8936421,26.9947541 C33.7444281,26.9947541 34.4354596,26.3219672 34.4354596,25.4921967 C34.4354596,24.6636721 33.7444281,23.9908852 32.8936421,23.9908852 L33.4843625,23.9908852 C34.3351486,23.9908852 35.02618,23.3193443 35.02618,22.4895738 Z M18.0359704,21.9429967 C18.5635321,21.9429967 18.9907827,22.3603738 18.9907827,22.8724393 L18.9907827,30.4911279 C18.9907827,31.0044393 18.5635321,31.4205705 18.0359704,31.4205705 L14.9535739,31.4205705 C14.4272506,31.4205705 14,31.0044393 14,30.4911279 L14,22.8724393 C14,22.3603738 14.4272506,21.9429967 14.9535739,21.9429967 L18.0359704,21.9429967 Z" id="Combined-Shape-Copy-5"></path>
                </g>
            </g>
        </g>
    </g>
</svg>