<?xml version="1.0" encoding="utf-8"?>
<!-- Generator: Adobe Illustrator 16.0.5, SVG Export Plug-In . SVG Version: 6.00 Build 0)  -->
<!DOCTYPE svg PUBLIC "-//W3C//DTD SVG 1.1//EN" "http://www.w3.org/Graphics/SVG/1.1/DTD/svg11.dtd">
<svg version="1.1" id="Layer_1" xmlns="http://www.w3.org/2000/svg" xmlns:xlink="http://www.w3.org/1999/xlink" x="0px" y="0px"
	 width="158px" height="35.178px" viewBox="1.019 604.012 158 35.178" enable-background="new 1.019 604.012 158 35.178"
	 xml:space="preserve">
<g id="Group-Copy">
	<g id="Rectangle-178-_x2B_-Imported-Layers-Copy-2" transform="translate(71.000000, 10.000000)">
		<g id="Imported-Layers" transform="translate(23.000000, 23.000000)">
			<g>
				<path id="Fill-1" fill="#CD040B" d="M61.528,571.012l-8.61,18.56l-3.254-7.042h-3.518l5.343,11.517h2.843l10.687-23.033
					L61.528,571.012"/>
				<path id="Fill-2" d="M24.504,605.471h6.955V592.7c0-2.913,1.694-4.975,4.191-4.975c2.407,0,3.656,1.703,3.656,4.123v13.622
					h6.956v-14.966c0-5.064-3.032-8.648-7.938-8.648c-3.121,0-5.306,1.345-6.955,3.81h-0.134v-3.137h-6.732L24.504,605.471
					L24.504,605.471z M10.86,581.901c-7.268,0-12.127,5.242-12.127,12.144c0,6.856,4.86,12.145,12.127,12.145
					s12.127-5.288,12.127-12.145C22.988,587.144,18.128,581.901,10.86,581.901L10.86,581.901z M10.816,601.036
					c-3.299,0-5.038-2.779-5.038-6.991c0-4.257,1.739-6.991,5.038-6.991c3.3,0,5.127,2.733,5.127,6.991
					C15.943,598.257,14.115,601.036,10.816,601.036L10.816,601.036z M-21.063,605.471h19.528v-5.512h-11.057v-0.134l10.567-11.919
					v-5.377h-19.038v5.512h10.7v0.135l-10.7,12.009V605.471L-21.063,605.471z M-29.981,605.471h7v-22.942h-7V605.471z
					 M-46.211,605.471h6.957v-10.529c0-4.796,2.853-6.901,7.223-6.318h0.133v-6.049c-0.356-0.136-0.757-0.181-1.426-0.181
					c-2.72,0-4.548,1.255-6.108,3.943h-0.134v-3.809h-6.643L-46.211,605.471L-46.211,605.471z M-59.007,601.081
					c-3.077,0-4.95-2.018-5.306-5.109h16.452c0.044-4.929-1.249-8.873-3.968-11.337c-1.917-1.792-4.458-2.778-7.668-2.778
					c-6.866,0-11.637,5.243-11.637,12.1c0,6.901,4.548,12.188,12.083,12.188c2.854,0,5.127-0.762,7-2.062
					c2.007-1.39,3.434-3.405,3.834-5.422h-6.688C-55.575,600.184-56.956,601.081-59.007,601.081L-59.007,601.081z M-59.364,586.875
					c2.452,0,4.146,1.837,4.414,4.526h-9.318C-63.734,588.668-62.262,586.875-59.364,586.875L-59.364,586.875z M-85.046,605.471
					h7.312l7.937-22.942h-7l-4.458,14.742h-0.089l-4.458-14.742h-7.179L-85.046,605.471L-85.046,605.471z M-29.981,574.373h7v6.229
					h-7V574.373z"/>
			</g>
		</g>
	</g>
</g>
</svg>
