<?xml version="1.0" encoding="UTF-8" standalone="no"?>
<svg width="297px" height="247px" viewBox="0 0 297 247" version="1.1" xmlns="http://www.w3.org/2000/svg" xmlns:xlink="http://www.w3.org/1999/xlink">
    <g stroke="none" stroke-width="1" fill="none" fill-rule="evenodd">
        <g transform="translate(-190.000000, -1425.000000)" stroke-width="1.5">
            <g transform="translate(191.000000, 1426.000000)">
                <path d="M179.982273,224 L114.619061,224" id="Stroke-1" stroke="#221F1F" stroke-linecap="round"></path>
                <path d="M240.490812,220.693311 L54.2409939,220.693311 C51.5228121,220.693311 49.3029636,218.477095 49.3029636,215.763361 L49.3029636,86.9152818 C49.3029636,84.201548 51.5228121,81.9853321 54.2409939,81.9853321 L240.490812,81.9853321 C243.218055,81.9853321 245.428842,84.201548 245.428842,86.9152818 L245.428842,215.763361 C245.428842,218.477095 243.218055,220.693311 240.490812,220.693311 Z" id="Stroke-2" stroke="#221F1F"></path>
                <polygon id="Stroke-4" stroke="#221F1F" points="61.7957273 184.00363 232.959636 184.00363 232.959636 94.1971341 61.7957273 94.1971341"></polygon>
                <polygon id="Stroke-6" stroke="#221F1F" stroke-linecap="round" points="171.881185 245.171189 122.854245 245.171189 129.097003 220.693311 165.68373 220.693311"></polygon>
                <path d="M245.436997,188 L49.292997,188" id="Stroke-7" stroke="#221F1F"></path>
                <path d="M162.528827,206 L132.202979,206" id="Stroke-8" stroke="#221F1F" stroke-linecap="round"></path>
                <path d="M49.2975273,33.0368116 C49.2975273,42.0464077 41.9765576,49.3553973 32.9521939,49.3553973 C23.9278303,49.3553973 16.6159212,42.0464077 16.6159212,33.0368116 C16.6159212,24.0091239 23.9278303,16.7182259 32.9521939,16.7182259 C41.9765576,16.7182259 49.2975273,24.0091239 49.2975273,33.0368116 Z" id="Stroke-9" stroke="#221F1F" stroke-linecap="round" stroke-linejoin="round"></path>
                <polyline id="Stroke-10" stroke="#221F1F" stroke-linecap="round" stroke-linejoin="round" points="32.9503818 33.0368116 32.9503818 114.62974 81.9863818 114.62974"></polyline>
                <path d="M32.9503818,179.898656 C32.9503818,170.889059 25.6294121,163.589116 16.6050485,163.589116 C7.58068485,163.589116 0.268775758,170.889059 0.268775758,179.898656 C0.268775758,188.917297 7.58068485,196.217241 16.6050485,196.217241 C25.6294121,196.217241 32.9503818,188.917297 32.9503818,179.898656 Z" id="Stroke-11" stroke="#221F1F" stroke-linecap="round" stroke-linejoin="round"></path>
                <polyline id="Stroke-12" stroke="#221F1F" stroke-linecap="round" stroke-linejoin="round" points="16.6077667 179.898656 16.6077667 130.942898 114.670706 130.942898"></polyline>
                <path d="M245.436997,33.0368116 C245.436997,42.0464077 252.757967,49.3553973 261.78233,49.3553973 C270.806694,49.3553973 278.118603,42.0464077 278.118603,33.0368116 C278.118603,24.0091239 270.806694,16.7182259 261.78233,16.7182259 C252.757967,16.7182259 245.436997,24.0091239 245.436997,33.0368116 Z" id="Stroke-13" stroke="#221F1F" stroke-linecap="round" stroke-linejoin="round"></path>
                <path d="M200.390382,49.3535881 C200.390382,56.1107852 205.881109,61.5925274 212.649382,61.5925274 C219.408594,61.5925274 224.899321,56.1107852 224.899321,49.3535881 C224.899321,42.5963911 219.408594,37.1146489 212.649382,37.1146489 C205.881109,37.1146489 200.390382,42.5963911 200.390382,49.3535881 Z" id="Stroke-14" stroke="#221F1F" stroke-linecap="round" stroke-linejoin="round"></path>
                <path d="M163.71033,16.7164167 C163.71033,25.7260128 171.0313,33.0350024 180.055664,33.0350024 C189.080027,33.0350024 196.391936,25.7260128 196.391936,16.7164167 C196.391936,7.70682062 189.080027,0.397831006 180.055664,0.397831006 C171.0313,0.397831006 163.71033,7.70682062 163.71033,16.7164167 Z" id="Stroke-15" stroke="#221F1F" stroke-linecap="round" stroke-linejoin="round"></path>
                <polyline id="Stroke-16" stroke="#221F1F" stroke-linecap="round" stroke-linejoin="round" points="261.784142 33.0368116 261.784142 130.93928 212.739082 130.93928"></polyline>
                <path d="M261.784142,212.534922 C261.784142,203.525326 269.105112,196.225382 278.129476,196.225382 C287.153839,196.225382 294.465748,203.525326 294.465748,212.534922 C294.465748,221.544519 287.153839,228.853508 278.129476,228.853508 C269.105112,228.853508 261.784142,221.544519 261.784142,212.534922 Z" id="Stroke-17" stroke="#221F1F" stroke-linecap="round" stroke-linejoin="round"></path>
                <polyline id="Stroke-18" stroke="#221F1F" stroke-linecap="round" stroke-linejoin="round" points="278.126758 212.534922 278.126758 163.579165 196.400091 163.579165"></polyline>
                <path d="M179,16.7164167 L179,130.937471" id="Stroke-19" stroke="#221F1F" stroke-linecap="round" stroke-linejoin="round"></path>
                <path d="M86.0754333,49.3535881 C86.0754333,56.1107852 91.5661606,61.5925274 98.3344333,61.5925274 C105.093645,61.5925274 110.584373,56.1107852 110.584373,49.3535881 C110.584373,42.5963911 105.093645,37.1146489 98.3344333,37.1146489 C91.5661606,37.1146489 86.0754333,42.5963911 86.0754333,49.3535881 Z" id="Stroke-20" stroke="#221F1F" stroke-linecap="round" stroke-linejoin="round"></path>
                <path d="M97,49.3535881 L97,163.574642" id="Stroke-21" stroke="#221F1F" stroke-linecap="round" stroke-linejoin="round"></path>
                <polyline id="Stroke-22" stroke="#221F1F" stroke-linecap="round" stroke-linejoin="round" points="212.649382 49.3535881 163.713048 49.3535881 163.713048 147.274148"></polyline>
                <path d="M86.0754333,114.626122 C86.0754333,116.878521 84.2451909,118.705768 81.9891,118.705768 C79.7239485,118.705768 77.9027667,116.878521 77.9027667,114.626122 C77.9027667,112.364677 79.7239485,110.546475 81.9891,110.546475 C84.2451909,110.546475 86.0754333,112.364677 86.0754333,114.626122 Z" id="Stroke-23" stroke="#000000"></path>
                <path d="M118.765194,130.946517 C118.765194,128.685072 116.934952,126.86687 114.678861,126.86687 C112.413709,126.86687 110.592527,128.685072 110.592527,130.946517 C110.592527,133.207962 112.413709,135.026163 114.678861,135.026163 C116.934952,135.026163 118.765194,133.207962 118.765194,130.946517 Z" id="Stroke-24" stroke="#000000"></path>
                <path d="M208.659091,130.946517 C208.659091,133.207962 210.489333,135.026163 212.745424,135.026163 C215.001515,135.026163 216.831758,133.207962 216.831758,130.946517 C216.831758,128.685072 215.001515,126.86687 212.745424,126.86687 C210.489333,126.86687 208.659091,128.685072 208.659091,130.946517 Z" id="Stroke-25" stroke="#000000"></path>
                <path d="M175.96933,130.946517 C175.96933,133.207962 177.799573,135.026163 180.055664,135.026163 C182.320815,135.026163 184.141997,133.207962 184.141997,130.946517 C184.141997,128.685072 182.320815,126.86687 180.055664,126.86687 C177.799573,126.86687 175.96933,128.685072 175.96933,130.946517 Z" id="Stroke-26" stroke="#000000"></path>
                <path d="M192.316476,163.578261 C192.316476,161.325862 194.146718,159.498614 196.402809,159.498614 C198.649839,159.498614 200.489142,161.325862 200.489142,163.578261 C200.489142,165.839705 198.649839,167.657907 196.402809,167.657907 C194.146718,167.657907 192.316476,165.839705 192.316476,163.578261 Z" id="Stroke-27" stroke="#000000"></path>
                <path d="M94.2471939,163.578261 C94.2471939,165.839705 96.0683758,167.657907 98.3335273,167.657907 C100.589618,167.657907 102.419861,165.839705 102.419861,163.578261 C102.419861,161.325862 100.589618,159.498614 98.3335273,159.498614 C96.0683758,159.498614 94.2471939,161.325862 94.2471939,163.578261 Z" id="Stroke-28" stroke="#000000"></path>
                <path d="M163.71033,151.339321 C161.445179,151.339321 159.623997,149.52112 159.623997,147.259675 C159.623997,145.016322 161.445179,143.180029 163.71033,143.180029 C165.975482,143.180029 167.796664,145.016322 167.796664,147.259675 C167.796664,149.52112 165.975482,151.339321 163.71033,151.339321 Z" id="Stroke-29" stroke="#000000"></path>
            </g>
        </g>
    </g>
</svg>