<?xml version="1.0" encoding="UTF-8" standalone="no"?>
<svg width="300px" height="176px" viewBox="0 0 300 176" version="1.1" xmlns="http://www.w3.org/2000/svg" xmlns:xlink="http://www.w3.org/1999/xlink">
    <g stroke="none" stroke-width="1" fill="none" fill-rule="evenodd" stroke-linejoin="round">
        <g transform="translate(-163.000000, -5541.000000)" stroke="#221F1F" stroke-width="1.5">
            <g transform="translate(164.000000, 5542.000000)">
                <polygon id="Stroke-1" stroke-linecap="round" points="34.2210328 146.633089 263.874775 146.633089 263.874775 13.6691922 34.2210328 13.6691922"></polygon>
                <polygon id="Stroke-2" stroke-linecap="round" points="21.7565925 161.106944 276.349416 161.106944 276.349416 0.213905817 21.7565925 0.213905817"></polygon>
                <polygon id="Stroke-4" stroke-linecap="round" points="0.21412283 173.36032 297.891885 173.36032 297.891885 161.106944 0.21412283 161.106944"></polygon>
                <path d="M229.822985,146.631052 C156.443948,146.631052 96.9573557,87.2281528 96.9573557,13.9523541" id="Stroke-5"></path>
                <path d="M168.224986,63.7134866 C165.103776,48.3432919 163.390171,31.5471018 163.390171,13.9462427" id="Stroke-6"></path>
                <path d="M264.183836,127.522712 C254.157204,139.643674 242.396566,146.620866 229.819925,146.620866 C208.716057,146.620866 189.917396,126.972685 177.738557,96.3239671" id="Stroke-7"></path>
                <path d="M221.909115,146.620866 L221.909115,15.5005779" id="Stroke-8"></path>
                <path d="M188.888213,79.9871512 L263.878856,80.2927217" id="Stroke-9"></path>
                <path d="M114.131151,78.2416107 L155.696286,78.2416107" id="Stroke-10"></path>
                <path d="M188.893313,80.2947588 C188.893313,89.4516872 181.457489,96.8872353 172.287659,96.8872353 C163.10763,96.8872353 155.671806,89.4516872 155.671806,80.2947588 C155.671806,71.1378304 163.10763,63.712468 172.287659,63.712468 C181.457489,63.712468 188.893313,71.1378304 188.893313,80.2947588 Z" id="Stroke-11"></path>
            </g>
        </g>
    </g>
</svg>