<?xml version="1.0" encoding="UTF-8" standalone="no"?>
<svg width="219px" height="203px" viewBox="0 0 219 203" version="1.1" xmlns="http://www.w3.org/2000/svg" xmlns:xlink="http://www.w3.org/1999/xlink">
    <g stroke="none" stroke-width="1" fill="none" fill-rule="evenodd" stroke-linecap="round" stroke-linejoin="round">
        <g transform="translate(-188.000000, -7349.000000)" stroke="#000000" stroke-width="1.5">
            <g transform="translate(189.000000, 7350.000000)">
                <path d="M42.012,84.382 C47.442,84.382 51.832,88.772 51.832,94.192 L51.832,174.652 C51.832,180.072 47.442,184.472 42.012,184.472 L10.312,184.472 C4.882,184.472 0.502,180.072 0.502,174.652 L0.502,94.192 C0.502,88.772 4.882,84.382 10.312,84.382 L42.012,84.382 Z" id="Stroke-1"></path>
                <path d="M216.802,90.153 C216.802,81.393 209.692,74.293 200.942,74.293 L130.922,74.293 L130.922,16.353 C130.922,7.603 123.842,0.503 115.082,0.503 C106.312,0.503 99.222,7.603 99.222,16.353 L99.222,20.193 C99.222,39.723 92.492,71.573 76.912,81.343 L76.912,81.353 C70.652,85.493 66.532,92.583 66.532,100.653 L66.532,178.903 C66.532,180.453 66.692,181.983 67.002,183.463 C68.922,192.723 76.622,199.863 86.152,200.983 C87.022,201.083 168.592,201.163 168.592,201.163 C177.352,201.163 184.442,194.063 184.442,185.303 C184.442,176.533 177.352,169.453 168.592,169.453 L179.372,169.453 C188.132,169.453 195.232,162.343 195.232,153.583 C195.232,144.823 188.132,137.723 179.372,137.723 L194.862,137.723 C203.612,137.723 210.722,130.633 210.722,121.853 C210.722,113.113 203.612,106.013 194.862,106.013 L200.942,106.013 C209.692,106.013 216.802,98.913 216.802,90.153" id="Stroke-3"></path>
            </g>
        </g>
    </g>
</svg>