<?xml version="1.0" encoding="UTF-8" standalone="no"?>
<svg width="257px" height="248px" viewBox="0 0 257 248" version="1.1" xmlns="http://www.w3.org/2000/svg" xmlns:xlink="http://www.w3.org/1999/xlink">
    <g id="Letter" stroke="none" stroke-width="1" fill="none" fill-rule="evenodd" stroke-linejoin="round">
        <g transform="translate(-189.000000, -2853.000000)" stroke-width="1.5">
            <g id="Icon2" transform="translate(190.000000, 2854.000000)">
                <path d="M31.8070193,110.911261 L31.8070193,87.1400869 C31.8070193,39.0097584 74.5217472,0.0164460308 127.191695,0.0164460308 C179.889738,0.0164460308 222.5951,39.0097584 222.5951,87.1400869 L222.5951,110.911261" id="Stroke-1" stroke="#221F1F"></path>
                <path d="M195.158778,26.0891405 L189.520921,31.707612 C173.862288,17.7267643 151.732294,8.98173466 127.204806,8.98173466 C102.686683,8.98173466 80.5566893,17.6987652 64.8980563,31.688946 L59.2227383,26.0331425" id="Stroke-3" stroke="#000000"></path>
                <path d="M31.8070193,205.972626 L31.8070193,205.972626 C23.0318165,205.972626 15.9048908,198.888872 15.9048908,190.125177 L15.9048908,126.754044 C15.9048908,117.999682 23.0318165,110.915928 31.8070193,110.915928 C40.5822221,110.915928 47.6997826,117.999682 47.6997826,126.754044 L47.6997826,190.125177 C47.6997826,198.888872 40.5822221,205.972626 31.8070193,205.972626 Z" id="Stroke-5" stroke="#221F1F"></path>
                <path d="M15.912383,190.132643 L15.912383,190.132643 C7.13718014,190.132643 0.0196196872,183.030223 0.0196196872,174.294527 L0.0196196872,142.60896 C0.0196196872,133.845265 7.13718014,126.742845 15.912383,126.742845" id="Stroke-7" stroke="#221F1F"></path>
                <path d="M222.591354,110.911261 L222.591354,110.911261 C231.366557,110.911261 238.484118,117.995015 238.484118,126.749378 L238.484118,190.12051 C238.484118,198.884206 231.366557,205.96796 222.591354,205.96796 C213.816151,205.96796 206.689226,198.884206 206.689226,190.12051 L206.689226,126.749378 C206.689226,117.995015 213.816151,110.911261 222.591354,110.911261 Z" id="Stroke-9" stroke="#221F1F"></path>
                <path d="M238.486927,126.747511 L238.486927,126.747511 C247.26213,126.747511 254.37969,133.849931 254.37969,142.594961 L254.37969,174.280527 C254.37969,183.044223 247.26213,190.13731 238.486927,190.13731" id="Stroke-11" stroke="#221F1F"></path>
                <path d="M222.591354,205.972626 L222.591354,221.717413 C222.591354,230.518441 215.426968,237.658193 206.595574,237.658193 L174.894334,237.658193" id="Stroke-13" stroke="#221F1F"></path>
                <path d="M166.944206,245.574451 L135.149315,245.574451 C130.766396,245.574451 127.188885,242.037241 127.188885,237.660059 C127.188885,233.273545 130.766396,229.736334 135.149315,229.736334 L166.944206,229.736334 C171.33649,229.736334 174.885905,233.273545 174.885905,237.660059 C174.885905,242.037241 171.33649,245.574451 166.944206,245.574451 Z" id="Stroke-15" stroke="#221F1F"></path>
            </g>
        </g>
    </g>
</svg>