<?xml version="1.0" encoding="UTF-8" standalone="no"?>
<svg width="221px" height="221px" viewBox="0 0 221 221" version="1.1" xmlns="http://www.w3.org/2000/svg" xmlns:xlink="http://www.w3.org/1999/xlink">
    <g stroke="none" stroke-width="1" fill="none" fill-rule="evenodd" stroke-linecap="round" stroke-linejoin="round">
        <g transform="translate(-187.000000, -6460.000000)" stroke="#221F1F" stroke-width="1.5">
            <g id="Page-1" transform="translate(188.000000, 6461.000000)">
                <path d="M199.273217,45.2667358 L173.900552,19.8940711 L150.827431,36.2938553 C144.899892,32.9533024 138.661603,30.3507786 132.229097,28.5639712 L127.536785,0.682007491 L91.6297259,0.682007491 L86.9374143,28.5639712 C80.5049078,30.3507786 74.2666194,32.9533024 68.3313115,36.2938553 L45.2659589,19.8940711 L19.8932942,45.2667358 L36.2930784,68.3320883 C32.9447568,74.2673963 30.3655392,80.5056847 28.5709631,86.9381912 L0.688999346,91.6305027 L0.688999346,127.522025 L28.5709631,132.214336 C30.3655392,138.654612 32.9447568,144.885131 36.2930784,150.820439 L19.8932942,173.885792 L45.2659589,199.273994 L68.3313115,182.858672 C74.2666194,186.206994 80.5049078,188.801749 86.9374143,190.596325 L91.6297259,218.47052 L127.536785,218.47052 L132.229097,190.596325 C138.661603,188.801749 144.899892,186.206994 150.827431,182.858672 L173.900552,199.273994 L199.273217,173.885792 L182.857895,150.820439 C186.206217,144.885131 188.800972,138.654612 190.595548,132.214336 L218.485281,127.522025 L218.485281,91.6305027 L190.595548,86.9381912 C188.800972,80.5056847 186.206217,74.2673963 182.857895,68.3320883 L199.273217,45.2667358 Z" id="Stroke-1"></path>
                <path d="M66.7993184,66.7977646 C43.1746174,90.4302343 43.1746174,128.730062 66.7993184,152.354763 C86.011382,171.559058 114.918818,175.163747 137.751109,163.137757 L119.183849,144.55496 C107.010253,147.887744 93.4771293,144.811328 83.9138255,135.248024 C72.7423951,124.076594 70.4117768,107.443748 76.8442833,93.9650054 L100.888496,117.985911 L117.995234,100.879173 L93.9743279,76.8427295 C107.45307,70.4179917 124.078148,72.7330726 135.249578,83.904503 C144.805113,93.4678068 147.889298,107.024237 144.556514,119.182296 L163.139311,137.749555 C175.165301,114.909495 171.56838,86.0098282 152.356317,66.7977646 C128.739384,43.1730637 90.4395568,43.1730637 66.7993184,66.7977646 Z" id="Stroke-3"></path>
            </g>
        </g>
    </g>
</svg>