<?xml version="1.0" encoding="UTF-8" standalone="no"?>
<svg width="329px" height="378px" viewBox="0 0 329 378" version="1.1" xmlns="http://www.w3.org/2000/svg" xmlns:xlink="http://www.w3.org/1999/xlink">
    <g stroke="none" stroke-width="1" fill="none" fill-rule="evenodd">
        <g transform="translate(-624.000000, -2251.000000)">
            <g id="Group-3" transform="translate(625.000000, 2252.000000)">
                <g id="Group-7" transform="translate(101.000000, 34.000000)" stroke="#000000" stroke-width="1.5">
                    <path d="M0,164.447787 L190.542969,0.486849992" id="Path-9"></path>
                    <path d="M0,165.21875 L188.230469,106" id="Path-10"></path>
                    <path d="M0,164 L188.921875,205.230469" id="Path-11"></path>
                    <path d="M0,163 L186.683594,306.898438" id="Path-12"></path>
                </g>
                <circle id="Oval" stroke="#000000" stroke-width="1.5" fill="#F6F6F6" cx="100" cy="198" r="100"></circle>
                <path d="M28.66,190 L44.62,190 L44.62,185.83 L35.68,185.83 L35.68,185.8 C37.12,184.27 39.34,183.01 41.17,181.51 C43,180.1 44.59,178.45 44.59,175.6 C44.59,171.97 41.92,169.03 36.97,169.03 C33.76,169.03 31.54,170.17 30.37,171.85 C29.38,173.2 28.96,174.67 28.96,177.07 L33.7,177.07 C33.73,175.66 34.03,174.73 34.63,174.04 C35.14,173.41 35.89,173.11 36.85,173.11 C38.59,173.11 39.52,174.19 39.52,175.78 C39.52,176.8 39.01,177.58 38.17,178.33 C36.55,179.77 34.15,181.27 32.29,182.86 C30.25,184.57 28.72,186.55 28.66,190 Z M55.57,186.52 C58.36,186.52 59.44,183.79 59.44,179.74 C59.44,175.75 58.33,172.93 55.57,172.93 C52.81,172.93 51.67,175.72 51.67,179.74 C51.67,183.76 52.81,186.52 55.57,186.52 Z M55.54,190.48 C50.2,190.48 46.48,186.28 46.48,179.74 C46.48,173.2 50.17,169 55.57,169 C61.09,169 64.66,173.2 64.66,179.74 C64.66,186.28 61,190.48 55.54,190.48 Z M70.57,190 L75.64,190 L75.64,169.27 L71.62,169.27 C71.11,172.06 68.89,173.35 66.16,173.44 L66.16,176.86 L70.57,176.86 L70.57,190 Z M87.52,190.48 C81.49,190.48 78.52,186.01 78.49,179.89 C78.46,176.53 79.21,173.68 80.98,171.67 C82.45,169.99 84.55,169.03 87.49,169.03 C91.75,169.03 94.45,171.19 95.08,174.52 L90.25,174.52 C89.95,173.5 89.23,172.63 87.55,172.63 C85.03,172.63 83.65,174.52 83.5,177.82 L83.56,177.82 C84.67,176.65 86.05,175.87 88.27,175.87 C92.23,175.87 95.68,178.75 95.68,183.16 C95.68,187.54 92.23,190.48 87.52,190.48 Z M87.34,186.7 C89.41,186.7 90.88,185.2 90.88,183.19 C90.88,181.15 89.41,179.59 87.34,179.59 C85.15,179.59 83.77,181.12 83.77,183.19 C83.77,185.23 85.24,186.7 87.34,186.7 Z M33.7,222.39 C30.64,222.39 28.45,220.74 28.45,217.71 C28.45,214.32 31.15,213.3 34.33,212.88 C37.21,212.52 38.23,212.22 38.23,211.17 C38.23,210.18 37.6,209.52 36.13,209.52 C34.57,209.52 33.79,210.21 33.64,211.5 L29.14,211.5 C29.26,208.65 31.45,206.22 36.1,206.22 C38.41,206.22 39.97,206.64 41.08,207.48 C42.4,208.44 43.03,209.94 43.03,211.86 L43.03,219.6 C43.03,220.83 43.15,221.52 43.57,221.79 L43.57,222 L38.83,222 C38.59,221.67 38.44,221.07 38.32,220.29 L38.26,220.29 C37.36,221.58 36.01,222.39 33.7,222.39 Z M35.26,219.27 C37.09,219.27 38.35,218.16 38.35,216.51 L38.35,214.68 C37.72,215.01 36.82,215.25 35.83,215.49 C33.94,215.91 33.16,216.39 33.16,217.56 C33.16,218.79 34.06,219.27 35.26,219.27 Z M51.37,222.18 C52.69,222.18 53.62,222.06 54.04,221.94 L54.04,218.37 C53.86,218.37 53.38,218.4 52.96,218.4 C51.91,218.4 51.25,218.1 51.25,216.9 L51.25,209.7 L54.04,209.7 L54.04,206.64 L51.25,206.64 L51.25,201.78 L46.48,201.78 L46.48,206.64 L44.44,206.64 L44.44,209.7 L46.48,209.7 L46.48,217.95 C46.48,221.25 48.52,222.18 51.37,222.18 Z M65.35,222.39 C62.29,222.39 60.1,220.74 60.1,217.71 C60.1,214.32 62.8,213.3 65.98,212.88 C68.86,212.52 69.88,212.22 69.88,211.17 C69.88,210.18 69.25,209.52 67.78,209.52 C66.22,209.52 65.44,210.21 65.29,211.5 L60.79,211.5 C60.91,208.65 63.1,206.22 67.75,206.22 C70.06,206.22 71.62,206.64 72.73,207.48 C74.05,208.44 74.68,209.94 74.68,211.86 L74.68,219.6 C74.68,220.83 74.8,221.52 75.22,221.79 L75.22,222 L70.48,222 C70.24,221.67 70.09,221.07 69.97,220.29 L69.91,220.29 C69.01,221.58 67.66,222.39 65.35,222.39 Z M66.91,219.27 C68.74,219.27 70,218.16 70,216.51 L70,214.68 C69.37,215.01 68.47,215.25 67.48,215.49 C65.59,215.91 64.81,216.39 64.81,217.56 C64.81,218.79 65.71,219.27 66.91,219.27 Z M89.2,227.31 C84.97,227.31 82.18,225.57 81.7,222.36 L86.44,222.36 C86.71,223.17 87.52,223.86 89.14,223.86 C91.21,223.86 92.08,222.78 92.08,220.92 L92.08,219.39 L91.96,219.39 C91.06,220.41 89.89,221.16 88.03,221.16 C84.58,221.16 81.37,218.58 81.37,213.87 C81.37,209.37 84.01,206.19 87.82,206.19 C89.86,206.19 91.24,207 92.14,208.29 L92.2,208.29 L92.2,206.64 L96.88,206.64 L96.88,220.5 C96.88,222.81 96.07,224.49 94.84,225.6 C93.49,226.8 91.48,227.31 89.2,227.31 Z M89.17,217.53 C91.3,217.53 92.29,215.85 92.29,213.69 C92.29,211.62 91.21,209.88 89.17,209.88 C87.34,209.88 86.14,211.38 86.14,213.72 C86.14,216.03 87.34,217.53 89.17,217.53 Z M99.43,222 L104.38,222 L104.38,200.55 L99.43,200.55 L99.43,222 Z M111.46,222.39 C108.4,222.39 106.21,220.74 106.21,217.71 C106.21,214.32 108.91,213.3 112.09,212.88 C114.97,212.52 115.99,212.22 115.99,211.17 C115.99,210.18 115.36,209.52 113.89,209.52 C112.33,209.52 111.55,210.21 111.4,211.5 L106.9,211.5 C107.02,208.65 109.21,206.22 113.86,206.22 C116.17,206.22 117.73,206.64 118.84,207.48 C120.16,208.44 120.79,209.94 120.79,211.86 L120.79,219.6 C120.79,220.83 120.91,221.52 121.33,221.79 L121.33,222 L116.59,222 C116.35,221.67 116.2,221.07 116.08,220.29 L116.02,220.29 C115.12,221.58 113.77,222.39 111.46,222.39 Z M113.02,219.27 C114.85,219.27 116.11,218.16 116.11,216.51 L116.11,214.68 C115.48,215.01 114.58,215.25 113.59,215.49 C111.7,215.91 110.92,216.39 110.92,217.56 C110.92,218.79 111.82,219.27 113.02,219.27 Z M123.34,222 L128.23,222 L128.23,213.51 C128.23,211.62 129.31,210.27 130.93,210.27 C132.52,210.27 133.33,211.38 133.33,213 L133.33,222 L138.22,222 L138.22,212.01 C138.22,208.59 136.24,206.19 132.88,206.19 C130.75,206.19 129.28,207.09 128.14,208.74 L128.05,208.74 L128.05,206.64 L123.34,206.64 L123.34,222 Z M148.09,222.48 C152.44,222.48 155.26,219.72 155.38,216.18 L150.7,216.18 C150.49,217.92 149.56,218.82 148.03,218.82 C145.93,218.82 144.88,217.08 144.88,214.35 C144.88,211.56 145.93,209.82 148.03,209.82 C149.41,209.82 150.25,210.72 150.55,212.1 L155.26,212.1 C154.81,208.65 152.14,206.22 147.97,206.22 C143.11,206.22 139.93,209.73 139.93,214.35 C139.93,218.97 143.14,222.48 148.09,222.48 Z M164.62,222.45 C159.55,222.45 156.43,218.94 156.43,214.29 C156.43,209.7 159.64,206.19 164.32,206.19 C166.51,206.19 168.25,206.91 169.57,208.11 C171.4,209.79 172.3,212.46 172.27,215.58 L161.23,215.58 C161.53,217.65 162.67,218.94 164.68,218.94 C165.97,218.94 166.81,218.37 167.23,217.41 L172,217.41 C171.67,218.79 170.77,220.11 169.42,221.04 C168.13,221.94 166.57,222.45 164.62,222.45 Z M161.26,212.67 L167.32,212.67 C167.14,210.84 166,209.67 164.41,209.67 C162.55,209.67 161.59,210.84 161.26,212.67 Z" id="2016-at-a-glance" fill="#D52B1E"></path>
                <circle id="Oval-Copy" stroke="#000000" stroke-width="1.5" fill="#F6F6F6" cx="292" cy="35" r="35"></circle>
                <g id="Page-1" transform="translate(269.000000, 19.000000)" stroke-linecap="round" stroke-linejoin="round">
                    <path d="M45.9235593,9.87126624 C33.3301299,-2.84144256 12.9222956,-2.84144256 0.332865388,9.87126624" id="Stroke-1" stroke="#221F1F"></path>
                    <path d="M41.3731548,14.4641059 C31.2952119,4.28801472 14.9598797,4.28532192 4.88193682,14.4641059" id="Stroke-3" stroke="#221F1F"></path>
                    <path d="M36.8271494,19.0581574 C29.2606939,11.415991 16.9911984,11.415991 9.42607592,19.0554646" id="Stroke-5" stroke="#221F1F"></path>
                    <path d="M23.0760896,22.92246 C20.3579778,22.92246 18.1544276,25.1480592 18.1544276,27.8933688 C18.1544276,30.6386784 20.3579778,32.8629312 23.0760896,32.8629312 C25.7942015,32.8629312 27.9964186,30.6386784 27.9964186,27.8933688 C27.9964186,25.1480592 25.7942015,22.92246 23.0760896,22.92246 Z" id="Stroke-7" stroke="#221F1F"></path>
                    <path d="M23.1034174,27.892561 L45.9240925,7.48517616" id="Stroke-9" stroke="#000000"></path>
                </g>
                <circle id="Oval-Copy-2" stroke="#000000" stroke-width="1.5" fill="#F6F6F6" cx="292" cy="137" r="35"></circle>
                <circle id="Oval-Copy-3" stroke="#000000" stroke-width="1.5" fill="#F6F6F6" cx="292" cy="239" r="35"></circle>
                <circle id="Oval-Copy-4" stroke="#000000" stroke-width="1.5" fill="#F6F6F6" cx="292" cy="341" r="35"></circle>
                <g id="Page-1" transform="translate(273.000000, 118.000000)" stroke="#221F1F" stroke-linecap="round" stroke-linejoin="round">
                    <path d="M18.8170571,17.4262571 C18.9174857,17.6352571 19.1251286,17.7601143 19.3436286,17.7641857 L21.2897714,17.7641857 L21.2884143,23.8387571 C21.3345571,24.4006143 21.8068429,24.8457571 22.3795571,24.8457571 L24.0203429,24.8457571 C24.5930571,24.8457571 25.0653429,24.4006143 25.1101286,23.8387571 L25.1101286,17.7641857 L27.0535571,17.7641857 C27.2707,17.7601143 27.4797,17.6352571 27.5787714,17.4262571 C27.6914143,17.1941857 27.6371286,16.9254714 27.4661286,16.7517571 L27.4702,16.7517571 L24.0379857,13.3209 C23.5752,12.8567571 22.8247,12.8567571 22.3619143,13.3209 L18.9269857,16.7517571 L18.9297,16.7517571 C18.7587,16.9254714 18.7057714,17.1941857 18.8170571,17.4262571" id="Stroke-1"></path>
                    <path d="M18.8494929,20.3910714 C18.7490643,20.1820714 18.5414214,20.0585714 18.3229214,20.0545 L16.3767786,20.0545 L16.3781357,13.9799286 C16.33335,13.4180714 15.8597071,12.9729286 15.2869929,12.9729286 L13.6462071,12.9729286 C13.07485,12.9729286 12.6012071,13.4180714 12.5577786,13.9785714 L12.5577786,20.0545 L10.61435,20.0545 C10.39585,20.0585714 10.1882071,20.1820714 10.0877786,20.3910714 C9.97649286,20.6245 10.0294214,20.8918571 10.2004214,21.0655714 L10.19635,21.0669286 L13.6285643,24.4964286 C14.09135,24.9619286 14.84185,24.9619286 15.3046357,24.4977857 L18.7395643,21.0669286 L18.73685,21.0655714 C18.90785,20.8918571 18.9607786,20.6245 18.8494929,20.3910714" id="Stroke-3"></path>
                    <path d="M18.9105643,37.4785857 L18.8019929,37.4785857 C8.56235,37.4188714 0.281064286,29.0398714 0.339421429,18.8015857 C0.347564286,17.2775143 1.58663571,16.0465857 3.10935,16.0465857 L3.12563571,16.0465857 C4.65649286,16.0547286 5.89013571,17.3033 5.88199286,18.8341571 C5.84127857,26.0161571 11.6512071,31.8939429 18.8345643,31.9346571 C18.86035,31.9360143 18.8847786,31.9360143 18.9105643,31.9360143 C22.3604214,31.9360143 25.6094214,30.6019429 28.0672071,28.1740143 C30.5412786,25.7257286 31.9147071,22.4645143 31.9337071,18.9834429 C31.9757786,11.8014429 26.16585,5.92365714 18.98385,5.88294286 C17.4529929,5.87344286 16.21935,4.62622857 16.22885,3.09401429 C16.23835,1.56994286 17.4774214,0.339014286 19.0001357,0.339014286 L19.0164214,0.339014286 C29.2547071,0.400085714 37.5359929,8.77908571 37.4776357,19.0160143 C37.4491357,23.9750143 35.4907786,28.6286571 31.9635643,32.1138 C28.4621357,35.5772286 23.8302071,37.4785857 18.9105643,37.4785857" id="Stroke-5"></path>
                </g>
                <g id="Page-1" transform="translate(282.000000, 218.000000)" stroke="#000000" stroke-linecap="round" stroke-linejoin="round">
                    <path d="M0.3753,30.7134172 L0.3753,36.181831 L13.1643,36.181831 C17.4048,36.181831 20.8398,32.784831 20.8398,28.5975207 C20.8398,24.4072448 17.4048,21.0102448 13.1643,21.0102448 L8.0508,21.0102448 C3.8118,21.0102448 0.3753,17.6132448 0.3753,13.4259345 C0.3753,9.23565862 3.8118,5.83865862 8.0508,5.83865862 L20.8398,5.83865862 L20.8398,10.9067276" id="Stroke-1"></path>
                    <path d="M10.5,0.370393103 L10.5,41.5881172" id="Stroke-3"></path>
                </g>
                <path d="M302.584073,346.270509 C300.38505,345.178209 297.843781,345.554548 296.063057,347.020563 L287.274832,342.049485 C287.360065,341.468587 287.360065,340.87982 287.27352,340.298921 L296.07617,335.339645 C297.626108,336.61159 299.775303,337.088898 301.819594,336.401785 C304.975855,335.340956 306.675279,331.922439 305.615762,328.766178 C304.556244,325.609917 301.139038,323.909182 297.980155,324.971322 C295.16745,325.918069 293.515232,328.736019 293.9414,331.573637 L285.150552,336.526357 C282.781061,334.56861 279.269443,334.695805 277.052061,336.913186 C274.695684,339.268252 274.695684,343.0854 277.052061,345.440466 C279.272065,347.66047 282.784995,347.785042 285.154485,345.823361 L293.936155,350.790505 C293.565061,353.304236 294.817338,355.875664 297.214365,357.067622 C300.197536,358.550684 303.815369,357.336435 305.298431,354.353264 C306.780182,351.370092 305.564622,347.753571 302.584073,346.270509" id="Page-1" stroke="#221F1F" stroke-linecap="round" stroke-linejoin="round"></path>
            </g>
        </g>
    </g>
</svg>